<?xml version="1.0" encoding="UTF-8" standalone="no"?><svg xmlns="http://www.w3.org/2000/svg" xmlns:xlink="http://www.w3.org/1999/xlink" contentScriptType="application/ecmascript" contentStyleType="text/css" height="829px" preserveAspectRatio="none" style="width:1174px;height:829px;" version="1.1" viewBox="0 0 1174 829" width="1174px" zoomAndPan="magnify"><defs><filter height="300%" id="fyvsqlq2hwil0" width="300%" x="-1" y="-1"><feGaussianBlur result="blurOut" stdDeviation="2.0"/><feColorMatrix in="blurOut" result="blurOut2" type="matrix" values="0 0 0 0 0 0 0 0 0 0 0 0 0 0 0 0 0 0 .4 0"/><feOffset dx="4.0" dy="4.0" in="blurOut2" result="blurOut3"/><feBlend in="SourceGraphic" in2="blurOut3" mode="normal"/></filter></defs><g><text fill="#000000" font-family="sans-serif" font-size="18" lengthAdjust="spacingAndGlyphs" textLength="175" x="503" y="16.708">Sharing Station App</text><!--MD5=[d4b12c1f0c53cf46799e0281759f09c4]
class Redux--><rect fill="#FEFECE" filter="url(#fyvsqlq2hwil0)" height="66.7422" id="Redux" style="stroke: #A80036; stroke-width: 1.5;" width="92" x="423.5" y="28.9531"/><ellipse cx="438.5" cy="47.9219" fill="#FFFF00" rx="11" ry="11" style="stroke: #A80036; stroke-width: 1.0;"/><path d="M438.0469,49.5156 L438.0469,51.2188 L439.7344,51.2188 C440.1875,51.2188 440.3281,51.25 440.5,51.375 C440.7188,51.5469 440.8594,51.7969 440.8594,52.0781 C440.8594,52.3594 440.7031,52.6563 440.4375,52.7969 C440.3281,52.875 440.0781,52.9219 439.7344,52.9219 L436.0938,52.9219 C435.7031,52.9219 435.4688,52.875 435.3281,52.75 C435.1094,52.5938 434.9688,52.3281 434.9688,52.0781 C434.9688,51.7813 435.125,51.5 435.375,51.3438 C435.5313,51.2344 435.6875,51.2188 436.0938,51.2188 L436.3438,51.2188 L436.3438,44.7031 L436.0938,44.7031 C435.6719,44.7031 435.4844,44.6719 435.3281,44.5625 C435.1094,44.3906 434.9688,44.1094 434.9688,43.8594 C434.9688,43.5781 435.125,43.2813 435.375,43.125 C435.5313,43.0313 435.6563,43.0156 436.0938,43.0156 L440.0469,43.0156 C442.2188,43.0156 443.75,44.3438 443.75,46.2188 C443.75,47 443.4375,47.8125 442.8906,48.4063 C442.1406,49.2344 441.2969,49.5156 439.7188,49.5156 Z M438.0469,44.7031 L438.0469,47.8281 L440.0469,47.8281 C441.2344,47.8281 441.9375,47.2344 441.9375,46.2813 C441.9375,45.3125 441.2344,44.7031 440.0469,44.7031 Z "/><text fill="#000000" font-family="sans-serif" font-size="12" font-style="italic" lengthAdjust="spacingAndGlyphs" textLength="64" x="450.5" y="45.0918">«Provider»</text><text fill="#000000" font-family="sans-serif" font-size="12" lengthAdjust="spacingAndGlyphs" textLength="38" x="463.5" y="59.0605">Redux</text><line style="stroke: #A80036; stroke-width: 1.5;" x1="424.5" x2="514.5" y1="66.8906" y2="66.8906"/><polygon fill="none" points="434.5,73.8906,430.5,79.8906,438.5,79.8906" style="stroke: #1963A0; stroke-width: 1.0;"/><text fill="#000000" font-family="sans-serif" font-size="11" lengthAdjust="spacingAndGlyphs" textLength="30" x="443.5" y="81.1011">store</text><line style="stroke: #A80036; stroke-width: 1.5;" x1="424.5" x2="514.5" y1="87.6953" y2="87.6953"/><!--MD5=[335f4d9be48430461c68bf6d6fdba145]
class App--><rect fill="#FEFECE" filter="url(#fyvsqlq2hwil0)" height="66.7422" id="App" style="stroke: #A80036; stroke-width: 1.5;" width="113" x="413" y="155.9531"/><ellipse cx="428" cy="174.9219" fill="#0000FF" rx="11" ry="11" style="stroke: #A80036; stroke-width: 1.0;"/><path d="M430.3438,170.5938 L430.5156,170.6719 C430.7344,170.3594 430.9375,170.2656 431.2344,170.2656 C431.5313,170.2656 431.8125,170.4063 431.9688,170.6719 C432.0625,170.8281 432.0781,170.9531 432.0781,171.3906 L432.0781,172.8125 C432.0781,173.2344 432.0469,173.4219 431.9375,173.5781 C431.7656,173.7969 431.5,173.9375 431.2344,173.9375 C431.0156,173.9375 430.7813,173.8281 430.6406,173.6875 C430.5,173.5625 430.4688,173.4375 430.4063,173.0313 C430.3125,172.625 430.1406,172.4063 429.6563,172.125 C429.1875,171.875 428.5781,171.7188 428,171.7188 C426.2656,171.7188 425.0156,173.0313 425.0156,174.8125 L425.0156,175.9063 C425.0156,177.6094 426.3125,178.7031 428.3594,178.7031 C429.125,178.7031 429.8125,178.5781 430.2344,178.3125 C430.4219,178.2188 430.4219,178.2188 430.875,177.7344 C431.0625,177.5469 431.2656,177.4688 431.4844,177.4688 C431.9531,177.4688 432.3438,177.8594 432.3438,178.3125 C432.3438,178.7031 432.0156,179.1563 431.4375,179.5625 C430.6875,180.1094 429.5313,180.4063 428.3125,180.4063 C425.4219,180.4063 423.3125,178.5156 423.3125,175.9375 L423.3125,174.8125 C423.3125,172.0938 425.3125,170.0156 427.9375,170.0156 C428.8125,170.0156 429.4063,170.1563 430.3438,170.5938 Z "/><text fill="#000000" font-family="sans-serif" font-size="12" font-style="italic" lengthAdjust="spacingAndGlyphs" textLength="85" x="440" y="172.0918">«component»</text><text fill="#000000" font-family="sans-serif" font-size="12" lengthAdjust="spacingAndGlyphs" textLength="24" x="470.5" y="186.0605">App</text><line style="stroke: #A80036; stroke-width: 1.5;" x1="414" x2="525" y1="193.8906" y2="193.8906"/><polygon fill="none" points="424,200.8906,420,206.8906,428,206.8906" style="stroke: #1963A0; stroke-width: 1.0;"/><text fill="#000000" font-family="sans-serif" font-size="11" lengthAdjust="spacingAndGlyphs" textLength="30" x="433" y="208.1011">store</text><line style="stroke: #A80036; stroke-width: 1.5;" x1="414" x2="525" y1="214.6953" y2="214.6953"/><!--MD5=[d10018d7374cb536a2ec2f77e731452b]
class Header--><rect fill="#FEFECE" filter="url(#fyvsqlq2hwil0)" height="66.7422" id="Header" style="stroke: #A80036; stroke-width: 1.5;" width="113" x="265" y="282.9531"/><ellipse cx="280" cy="301.9219" fill="#0000FF" rx="11" ry="11" style="stroke: #A80036; stroke-width: 1.0;"/><path d="M282.3438,297.5938 L282.5156,297.6719 C282.7344,297.3594 282.9375,297.2656 283.2344,297.2656 C283.5313,297.2656 283.8125,297.4063 283.9688,297.6719 C284.0625,297.8281 284.0781,297.9531 284.0781,298.3906 L284.0781,299.8125 C284.0781,300.2344 284.0469,300.4219 283.9375,300.5781 C283.7656,300.7969 283.5,300.9375 283.2344,300.9375 C283.0156,300.9375 282.7813,300.8281 282.6406,300.6875 C282.5,300.5625 282.4688,300.4375 282.4063,300.0313 C282.3125,299.625 282.1406,299.4063 281.6563,299.125 C281.1875,298.875 280.5781,298.7188 280,298.7188 C278.2656,298.7188 277.0156,300.0313 277.0156,301.8125 L277.0156,302.9063 C277.0156,304.6094 278.3125,305.7031 280.3594,305.7031 C281.125,305.7031 281.8125,305.5781 282.2344,305.3125 C282.4219,305.2188 282.4219,305.2188 282.875,304.7344 C283.0625,304.5469 283.2656,304.4688 283.4844,304.4688 C283.9531,304.4688 284.3438,304.8594 284.3438,305.3125 C284.3438,305.7031 284.0156,306.1563 283.4375,306.5625 C282.6875,307.1094 281.5313,307.4063 280.3125,307.4063 C277.4219,307.4063 275.3125,305.5156 275.3125,302.9375 L275.3125,301.8125 C275.3125,299.0938 277.3125,297.0156 279.9375,297.0156 C280.8125,297.0156 281.4063,297.1563 282.3438,297.5938 Z "/><text fill="#000000" font-family="sans-serif" font-size="12" font-style="italic" lengthAdjust="spacingAndGlyphs" textLength="85" x="292" y="299.0918">«component»</text><text fill="#000000" font-family="sans-serif" font-size="12" lengthAdjust="spacingAndGlyphs" textLength="46" x="311.5" y="313.0605">Header</text><line style="stroke: #A80036; stroke-width: 1.5;" x1="266" x2="377" y1="320.8906" y2="320.8906"/><polygon fill="none" points="276,327.8906,272,333.8906,280,333.8906" style="stroke: #1963A0; stroke-width: 1.0;"/><text fill="#000000" font-family="sans-serif" font-size="11" lengthAdjust="spacingAndGlyphs" textLength="30" x="285" y="335.1011">store</text><line style="stroke: #A80036; stroke-width: 1.5;" x1="266" x2="377" y1="341.6953" y2="341.6953"/><!--MD5=[b9e3a6bc78c4338dde72003e5bc0efe6]
class ErrorAlert--><rect fill="#FEFECE" filter="url(#fyvsqlq2hwil0)" height="66.7422" id="ErrorAlert" style="stroke: #A80036; stroke-width: 1.5;" width="113" x="413" y="282.9531"/><ellipse cx="428" cy="301.9219" fill="#0000FF" rx="11" ry="11" style="stroke: #A80036; stroke-width: 1.0;"/><path d="M430.3438,297.5938 L430.5156,297.6719 C430.7344,297.3594 430.9375,297.2656 431.2344,297.2656 C431.5313,297.2656 431.8125,297.4063 431.9688,297.6719 C432.0625,297.8281 432.0781,297.9531 432.0781,298.3906 L432.0781,299.8125 C432.0781,300.2344 432.0469,300.4219 431.9375,300.5781 C431.7656,300.7969 431.5,300.9375 431.2344,300.9375 C431.0156,300.9375 430.7813,300.8281 430.6406,300.6875 C430.5,300.5625 430.4688,300.4375 430.4063,300.0313 C430.3125,299.625 430.1406,299.4063 429.6563,299.125 C429.1875,298.875 428.5781,298.7188 428,298.7188 C426.2656,298.7188 425.0156,300.0313 425.0156,301.8125 L425.0156,302.9063 C425.0156,304.6094 426.3125,305.7031 428.3594,305.7031 C429.125,305.7031 429.8125,305.5781 430.2344,305.3125 C430.4219,305.2188 430.4219,305.2188 430.875,304.7344 C431.0625,304.5469 431.2656,304.4688 431.4844,304.4688 C431.9531,304.4688 432.3438,304.8594 432.3438,305.3125 C432.3438,305.7031 432.0156,306.1563 431.4375,306.5625 C430.6875,307.1094 429.5313,307.4063 428.3125,307.4063 C425.4219,307.4063 423.3125,305.5156 423.3125,302.9375 L423.3125,301.8125 C423.3125,299.0938 425.3125,297.0156 427.9375,297.0156 C428.8125,297.0156 429.4063,297.1563 430.3438,297.5938 Z "/><text fill="#000000" font-family="sans-serif" font-size="12" font-style="italic" lengthAdjust="spacingAndGlyphs" textLength="85" x="440" y="299.0918">«component»</text><text fill="#000000" font-family="sans-serif" font-size="12" lengthAdjust="spacingAndGlyphs" textLength="60" x="452.5" y="313.0605">ErrorAlert</text><line style="stroke: #A80036; stroke-width: 1.5;" x1="414" x2="525" y1="320.8906" y2="320.8906"/><polygon fill="none" points="424,327.8906,420,333.8906,428,333.8906" style="stroke: #1963A0; stroke-width: 1.0;"/><text fill="#000000" font-family="sans-serif" font-size="11" lengthAdjust="spacingAndGlyphs" textLength="30" x="433" y="335.1011">store</text><line style="stroke: #A80036; stroke-width: 1.5;" x1="414" x2="525" y1="341.6953" y2="341.6953"/><!--MD5=[0efaa77155ba1df531e58054b46f520d]
class Loading--><rect fill="#FEFECE" filter="url(#fyvsqlq2hwil0)" height="53.9375" id="Loading" style="stroke: #A80036; stroke-width: 1.5;" width="113" x="551" y="35.4531"/><ellipse cx="566" cy="54.4219" fill="#0000FF" rx="11" ry="11" style="stroke: #A80036; stroke-width: 1.0;"/><path d="M568.3438,50.0938 L568.5156,50.1719 C568.7344,49.8594 568.9375,49.7656 569.2344,49.7656 C569.5313,49.7656 569.8125,49.9063 569.9688,50.1719 C570.0625,50.3281 570.0781,50.4531 570.0781,50.8906 L570.0781,52.3125 C570.0781,52.7344 570.0469,52.9219 569.9375,53.0781 C569.7656,53.2969 569.5,53.4375 569.2344,53.4375 C569.0156,53.4375 568.7813,53.3281 568.6406,53.1875 C568.5,53.0625 568.4688,52.9375 568.4063,52.5313 C568.3125,52.125 568.1406,51.9063 567.6563,51.625 C567.1875,51.375 566.5781,51.2188 566,51.2188 C564.2656,51.2188 563.0156,52.5313 563.0156,54.3125 L563.0156,55.4063 C563.0156,57.1094 564.3125,58.2031 566.3594,58.2031 C567.125,58.2031 567.8125,58.0781 568.2344,57.8125 C568.4219,57.7188 568.4219,57.7188 568.875,57.2344 C569.0625,57.0469 569.2656,56.9688 569.4844,56.9688 C569.9531,56.9688 570.3438,57.3594 570.3438,57.8125 C570.3438,58.2031 570.0156,58.6563 569.4375,59.0625 C568.6875,59.6094 567.5313,59.9063 566.3125,59.9063 C563.4219,59.9063 561.3125,58.0156 561.3125,55.4375 L561.3125,54.3125 C561.3125,51.5938 563.3125,49.5156 565.9375,49.5156 C566.8125,49.5156 567.4063,49.6563 568.3438,50.0938 Z "/><text fill="#000000" font-family="sans-serif" font-size="12" font-style="italic" lengthAdjust="spacingAndGlyphs" textLength="85" x="578" y="51.5918">«component»</text><text fill="#000000" font-family="sans-serif" font-size="12" lengthAdjust="spacingAndGlyphs" textLength="49" x="596" y="65.5605">Loading</text><line style="stroke: #A80036; stroke-width: 1.5;" x1="552" x2="663" y1="73.3906" y2="73.3906"/><line style="stroke: #A80036; stroke-width: 1.5;" x1="552" x2="663" y1="81.3906" y2="81.3906"/><!--MD5=[a3ca736ecbdf9770d2cfef15820cfe41]
class Router--><rect fill="#FEFECE" filter="url(#fyvsqlq2hwil0)" height="66.7422" id="Router" style="stroke: #A80036; stroke-width: 1.5;" width="102" x="528.5" y="409.9531"/><ellipse cx="543.5" cy="428.9219" fill="#FF0000" rx="11" ry="11" style="stroke: #A80036; stroke-width: 1.0;"/><path d="M545.8438,424.5938 L546.0156,424.6719 C546.2344,424.3594 546.4375,424.2656 546.7344,424.2656 C547.0313,424.2656 547.3125,424.4063 547.4688,424.6719 C547.5625,424.8281 547.5781,424.9531 547.5781,425.3906 L547.5781,426.8125 C547.5781,427.2344 547.5469,427.4219 547.4375,427.5781 C547.2656,427.7969 547,427.9375 546.7344,427.9375 C546.5156,427.9375 546.2813,427.8281 546.1406,427.6875 C546,427.5625 545.9688,427.4375 545.9063,427.0313 C545.8125,426.625 545.6406,426.4063 545.1563,426.125 C544.6875,425.875 544.0781,425.7188 543.5,425.7188 C541.7656,425.7188 540.5156,427.0313 540.5156,428.8125 L540.5156,429.9063 C540.5156,431.6094 541.8125,432.7031 543.8594,432.7031 C544.625,432.7031 545.3125,432.5781 545.7344,432.3125 C545.9219,432.2188 545.9219,432.2188 546.375,431.7344 C546.5625,431.5469 546.7656,431.4688 546.9844,431.4688 C547.4531,431.4688 547.8438,431.8594 547.8438,432.3125 C547.8438,432.7031 547.5156,433.1563 546.9375,433.5625 C546.1875,434.1094 545.0313,434.4063 543.8125,434.4063 C540.9219,434.4063 538.8125,432.5156 538.8125,429.9375 L538.8125,428.8125 C538.8125,426.0938 540.8125,424.0156 543.4375,424.0156 C544.3125,424.0156 544.9063,424.1563 545.8438,424.5938 Z "/><text fill="#000000" font-family="sans-serif" font-size="12" font-style="italic" lengthAdjust="spacingAndGlyphs" textLength="74" x="555.5" y="426.0918">«container»</text><text fill="#000000" font-family="sans-serif" font-size="12" lengthAdjust="spacingAndGlyphs" textLength="42" x="571.5" y="440.0605">Router</text><line style="stroke: #A80036; stroke-width: 1.5;" x1="529.5" x2="629.5" y1="447.8906" y2="447.8906"/><polygon fill="none" points="539.5,454.8906,535.5,460.8906,543.5,460.8906" style="stroke: #1963A0; stroke-width: 1.0;"/><text fill="#000000" font-family="sans-serif" font-size="11" lengthAdjust="spacingAndGlyphs" textLength="30" x="548.5" y="462.1011">store</text><line style="stroke: #A80036; stroke-width: 1.5;" x1="529.5" x2="629.5" y1="468.6953" y2="468.6953"/><!--MD5=[6ed8971edd0fbe87f468f2db8334955c]
class AnimatedSwitch--><rect fill="#FEFECE" filter="url(#fyvsqlq2hwil0)" height="53.9375" id="AnimatedSwitch" style="stroke: #A80036; stroke-width: 1.5;" width="131" x="699" y="35.4531"/><ellipse cx="714" cy="54.4219" fill="#FF0000" rx="11" ry="11" style="stroke: #A80036; stroke-width: 1.0;"/><path d="M716.3438,50.0938 L716.5156,50.1719 C716.7344,49.8594 716.9375,49.7656 717.2344,49.7656 C717.5313,49.7656 717.8125,49.9063 717.9688,50.1719 C718.0625,50.3281 718.0781,50.4531 718.0781,50.8906 L718.0781,52.3125 C718.0781,52.7344 718.0469,52.9219 717.9375,53.0781 C717.7656,53.2969 717.5,53.4375 717.2344,53.4375 C717.0156,53.4375 716.7813,53.3281 716.6406,53.1875 C716.5,53.0625 716.4688,52.9375 716.4063,52.5313 C716.3125,52.125 716.1406,51.9063 715.6563,51.625 C715.1875,51.375 714.5781,51.2188 714,51.2188 C712.2656,51.2188 711.0156,52.5313 711.0156,54.3125 L711.0156,55.4063 C711.0156,57.1094 712.3125,58.2031 714.3594,58.2031 C715.125,58.2031 715.8125,58.0781 716.2344,57.8125 C716.4219,57.7188 716.4219,57.7188 716.875,57.2344 C717.0625,57.0469 717.2656,56.9688 717.4844,56.9688 C717.9531,56.9688 718.3438,57.3594 718.3438,57.8125 C718.3438,58.2031 718.0156,58.6563 717.4375,59.0625 C716.6875,59.6094 715.5313,59.9063 714.3125,59.9063 C711.4219,59.9063 709.3125,58.0156 709.3125,55.4375 L709.3125,54.3125 C709.3125,51.5938 711.3125,49.5156 713.9375,49.5156 C714.8125,49.5156 715.4063,49.6563 716.3438,50.0938 Z "/><text fill="#000000" font-family="sans-serif" font-size="12" font-style="italic" lengthAdjust="spacingAndGlyphs" textLength="74" x="740.5" y="51.5918">«container»</text><text fill="#000000" font-family="sans-serif" font-size="12" lengthAdjust="spacingAndGlyphs" textLength="99" x="728" y="65.5605">AnimatedSwitch</text><line style="stroke: #A80036; stroke-width: 1.5;" x1="700" x2="829" y1="73.3906" y2="73.3906"/><line style="stroke: #A80036; stroke-width: 1.5;" x1="700" x2="829" y1="81.3906" y2="81.3906"/><!--MD5=[f0268dd29ee89052933f031546cb1cab]
class Menu--><rect fill="#FEFECE" filter="url(#fyvsqlq2hwil0)" height="53.9375" id="Menu" style="stroke: #A80036; stroke-width: 1.5;" width="113" x="6" y="536.9531"/><ellipse cx="21" cy="555.9219" fill="#0000FF" rx="11" ry="11" style="stroke: #A80036; stroke-width: 1.0;"/><path d="M23.3438,551.5938 L23.5156,551.6719 C23.7344,551.3594 23.9375,551.2656 24.2344,551.2656 C24.5313,551.2656 24.8125,551.4063 24.9688,551.6719 C25.0625,551.8281 25.0781,551.9531 25.0781,552.3906 L25.0781,553.8125 C25.0781,554.2344 25.0469,554.4219 24.9375,554.5781 C24.7656,554.7969 24.5,554.9375 24.2344,554.9375 C24.0156,554.9375 23.7813,554.8281 23.6406,554.6875 C23.5,554.5625 23.4688,554.4375 23.4063,554.0313 C23.3125,553.625 23.1406,553.4063 22.6563,553.125 C22.1875,552.875 21.5781,552.7188 21,552.7188 C19.2656,552.7188 18.0156,554.0313 18.0156,555.8125 L18.0156,556.9063 C18.0156,558.6094 19.3125,559.7031 21.3594,559.7031 C22.125,559.7031 22.8125,559.5781 23.2344,559.3125 C23.4219,559.2188 23.4219,559.2188 23.875,558.7344 C24.0625,558.5469 24.2656,558.4688 24.4844,558.4688 C24.9531,558.4688 25.3438,558.8594 25.3438,559.3125 C25.3438,559.7031 25.0156,560.1563 24.4375,560.5625 C23.6875,561.1094 22.5313,561.4063 21.3125,561.4063 C18.4219,561.4063 16.3125,559.5156 16.3125,556.9375 L16.3125,555.8125 C16.3125,553.0938 18.3125,551.0156 20.9375,551.0156 C21.8125,551.0156 22.4063,551.1563 23.3438,551.5938 Z "/><text fill="#000000" font-family="sans-serif" font-size="12" font-style="italic" lengthAdjust="spacingAndGlyphs" textLength="85" x="33" y="553.0918">«component»</text><text fill="#000000" font-family="sans-serif" font-size="12" lengthAdjust="spacingAndGlyphs" textLength="34" x="58.5" y="567.0605">Menu</text><line style="stroke: #A80036; stroke-width: 1.5;" x1="7" x2="118" y1="574.8906" y2="574.8906"/><line style="stroke: #A80036; stroke-width: 1.5;" x1="7" x2="118" y1="582.8906" y2="582.8906"/><!--MD5=[cf0726fea8c06132ca3c6fc162a3f6d8]
class MenuEntry--><rect fill="#FEFECE" filter="url(#fyvsqlq2hwil0)" height="53.9375" id="MenuEntry" style="stroke: #A80036; stroke-width: 1.5;" width="113" x="6" y="650.9531"/><ellipse cx="21" cy="669.9219" fill="#0000FF" rx="11" ry="11" style="stroke: #A80036; stroke-width: 1.0;"/><path d="M23.3438,665.5938 L23.5156,665.6719 C23.7344,665.3594 23.9375,665.2656 24.2344,665.2656 C24.5313,665.2656 24.8125,665.4063 24.9688,665.6719 C25.0625,665.8281 25.0781,665.9531 25.0781,666.3906 L25.0781,667.8125 C25.0781,668.2344 25.0469,668.4219 24.9375,668.5781 C24.7656,668.7969 24.5,668.9375 24.2344,668.9375 C24.0156,668.9375 23.7813,668.8281 23.6406,668.6875 C23.5,668.5625 23.4688,668.4375 23.4063,668.0313 C23.3125,667.625 23.1406,667.4063 22.6563,667.125 C22.1875,666.875 21.5781,666.7188 21,666.7188 C19.2656,666.7188 18.0156,668.0313 18.0156,669.8125 L18.0156,670.9063 C18.0156,672.6094 19.3125,673.7031 21.3594,673.7031 C22.125,673.7031 22.8125,673.5781 23.2344,673.3125 C23.4219,673.2188 23.4219,673.2188 23.875,672.7344 C24.0625,672.5469 24.2656,672.4688 24.4844,672.4688 C24.9531,672.4688 25.3438,672.8594 25.3438,673.3125 C25.3438,673.7031 25.0156,674.1563 24.4375,674.5625 C23.6875,675.1094 22.5313,675.4063 21.3125,675.4063 C18.4219,675.4063 16.3125,673.5156 16.3125,670.9375 L16.3125,669.8125 C16.3125,667.0938 18.3125,665.0156 20.9375,665.0156 C21.8125,665.0156 22.4063,665.1563 23.3438,665.5938 Z "/><text fill="#000000" font-family="sans-serif" font-size="12" font-style="italic" lengthAdjust="spacingAndGlyphs" textLength="85" x="33" y="667.0918">«component»</text><text fill="#000000" font-family="sans-serif" font-size="12" lengthAdjust="spacingAndGlyphs" textLength="66" x="42.5" y="681.0605">MenuEntry</text><line style="stroke: #A80036; stroke-width: 1.5;" x1="7" x2="118" y1="688.8906" y2="688.8906"/><line style="stroke: #A80036; stroke-width: 1.5;" x1="7" x2="118" y1="696.8906" y2="696.8906"/><!--MD5=[44c50a945626a1ca7e1554c6491b6307]
class ArticleModuleContainer--><rect fill="#FEFECE" filter="url(#fyvsqlq2hwil0)" height="53.9375" id="ArticleModuleContainer" style="stroke: #A80036; stroke-width: 1.5;" width="177" x="154" y="536.9531"/><ellipse cx="169" cy="555.9219" fill="#FF0000" rx="11" ry="11" style="stroke: #A80036; stroke-width: 1.0;"/><path d="M171.3438,551.5938 L171.5156,551.6719 C171.7344,551.3594 171.9375,551.2656 172.2344,551.2656 C172.5313,551.2656 172.8125,551.4063 172.9688,551.6719 C173.0625,551.8281 173.0781,551.9531 173.0781,552.3906 L173.0781,553.8125 C173.0781,554.2344 173.0469,554.4219 172.9375,554.5781 C172.7656,554.7969 172.5,554.9375 172.2344,554.9375 C172.0156,554.9375 171.7813,554.8281 171.6406,554.6875 C171.5,554.5625 171.4688,554.4375 171.4063,554.0313 C171.3125,553.625 171.1406,553.4063 170.6563,553.125 C170.1875,552.875 169.5781,552.7188 169,552.7188 C167.2656,552.7188 166.0156,554.0313 166.0156,555.8125 L166.0156,556.9063 C166.0156,558.6094 167.3125,559.7031 169.3594,559.7031 C170.125,559.7031 170.8125,559.5781 171.2344,559.3125 C171.4219,559.2188 171.4219,559.2188 171.875,558.7344 C172.0625,558.5469 172.2656,558.4688 172.4844,558.4688 C172.9531,558.4688 173.3438,558.8594 173.3438,559.3125 C173.3438,559.7031 173.0156,560.1563 172.4375,560.5625 C171.6875,561.1094 170.5313,561.4063 169.3125,561.4063 C166.4219,561.4063 164.3125,559.5156 164.3125,556.9375 L164.3125,555.8125 C164.3125,553.0938 166.3125,551.0156 168.9375,551.0156 C169.8125,551.0156 170.4063,551.1563 171.3438,551.5938 Z "/><text fill="#000000" font-family="sans-serif" font-size="12" font-style="italic" lengthAdjust="spacingAndGlyphs" textLength="74" x="218.5" y="553.0918">«container»</text><text fill="#000000" font-family="sans-serif" font-size="12" lengthAdjust="spacingAndGlyphs" textLength="145" x="183" y="567.0605">ArticleModuleContainer</text><line style="stroke: #A80036; stroke-width: 1.5;" x1="155" x2="330" y1="574.8906" y2="574.8906"/><line style="stroke: #A80036; stroke-width: 1.5;" x1="155" x2="330" y1="582.8906" y2="582.8906"/><!--MD5=[eaae0d08855600fc97c5fd326db728e9]
class ArticleModule--><rect fill="#FEFECE" filter="url(#fyvsqlq2hwil0)" height="53.9375" id="ArticleModule" style="stroke: #A80036; stroke-width: 1.5;" width="116" x="184.5" y="650.9531"/><ellipse cx="199.5" cy="669.9219" fill="#0000FF" rx="11" ry="11" style="stroke: #A80036; stroke-width: 1.0;"/><path d="M201.8438,665.5938 L202.0156,665.6719 C202.2344,665.3594 202.4375,665.2656 202.7344,665.2656 C203.0313,665.2656 203.3125,665.4063 203.4688,665.6719 C203.5625,665.8281 203.5781,665.9531 203.5781,666.3906 L203.5781,667.8125 C203.5781,668.2344 203.5469,668.4219 203.4375,668.5781 C203.2656,668.7969 203,668.9375 202.7344,668.9375 C202.5156,668.9375 202.2813,668.8281 202.1406,668.6875 C202,668.5625 201.9688,668.4375 201.9063,668.0313 C201.8125,667.625 201.6406,667.4063 201.1563,667.125 C200.6875,666.875 200.0781,666.7188 199.5,666.7188 C197.7656,666.7188 196.5156,668.0313 196.5156,669.8125 L196.5156,670.9063 C196.5156,672.6094 197.8125,673.7031 199.8594,673.7031 C200.625,673.7031 201.3125,673.5781 201.7344,673.3125 C201.9219,673.2188 201.9219,673.2188 202.375,672.7344 C202.5625,672.5469 202.7656,672.4688 202.9844,672.4688 C203.4531,672.4688 203.8438,672.8594 203.8438,673.3125 C203.8438,673.7031 203.5156,674.1563 202.9375,674.5625 C202.1875,675.1094 201.0313,675.4063 199.8125,675.4063 C196.9219,675.4063 194.8125,673.5156 194.8125,670.9375 L194.8125,669.8125 C194.8125,667.0938 196.8125,665.0156 199.4375,665.0156 C200.3125,665.0156 200.9063,665.1563 201.8438,665.5938 Z "/><text fill="#000000" font-family="sans-serif" font-size="12" font-style="italic" lengthAdjust="spacingAndGlyphs" textLength="85" x="213" y="667.0918">«component»</text><text fill="#000000" font-family="sans-serif" font-size="12" lengthAdjust="spacingAndGlyphs" textLength="84" x="213.5" y="681.0605">ArticleModule</text><line style="stroke: #A80036; stroke-width: 1.5;" x1="185.5" x2="299.5" y1="688.8906" y2="688.8906"/><line style="stroke: #A80036; stroke-width: 1.5;" x1="185.5" x2="299.5" y1="696.8906" y2="696.8906"/><!--MD5=[ebef2814204c81481d945f37a0431cfa]
class PhotoboxModuleContainer--><rect fill="#FEFECE" filter="url(#fyvsqlq2hwil0)" height="53.9375" id="PhotoboxModuleContainer" style="stroke: #A80036; stroke-width: 1.5;" width="197" x="366" y="536.9531"/><ellipse cx="381" cy="555.9219" fill="#FF0000" rx="11" ry="11" style="stroke: #A80036; stroke-width: 1.0;"/><path d="M383.3438,551.5938 L383.5156,551.6719 C383.7344,551.3594 383.9375,551.2656 384.2344,551.2656 C384.5313,551.2656 384.8125,551.4063 384.9688,551.6719 C385.0625,551.8281 385.0781,551.9531 385.0781,552.3906 L385.0781,553.8125 C385.0781,554.2344 385.0469,554.4219 384.9375,554.5781 C384.7656,554.7969 384.5,554.9375 384.2344,554.9375 C384.0156,554.9375 383.7813,554.8281 383.6406,554.6875 C383.5,554.5625 383.4688,554.4375 383.4063,554.0313 C383.3125,553.625 383.1406,553.4063 382.6563,553.125 C382.1875,552.875 381.5781,552.7188 381,552.7188 C379.2656,552.7188 378.0156,554.0313 378.0156,555.8125 L378.0156,556.9063 C378.0156,558.6094 379.3125,559.7031 381.3594,559.7031 C382.125,559.7031 382.8125,559.5781 383.2344,559.3125 C383.4219,559.2188 383.4219,559.2188 383.875,558.7344 C384.0625,558.5469 384.2656,558.4688 384.4844,558.4688 C384.9531,558.4688 385.3438,558.8594 385.3438,559.3125 C385.3438,559.7031 385.0156,560.1563 384.4375,560.5625 C383.6875,561.1094 382.5313,561.4063 381.3125,561.4063 C378.4219,561.4063 376.3125,559.5156 376.3125,556.9375 L376.3125,555.8125 C376.3125,553.0938 378.3125,551.0156 380.9375,551.0156 C381.8125,551.0156 382.4063,551.1563 383.3438,551.5938 Z "/><text fill="#000000" font-family="sans-serif" font-size="12" font-style="italic" lengthAdjust="spacingAndGlyphs" textLength="74" x="440.5" y="553.0918">«container»</text><text fill="#000000" font-family="sans-serif" font-size="12" lengthAdjust="spacingAndGlyphs" textLength="165" x="395" y="567.0605">PhotoboxModuleContainer</text><line style="stroke: #A80036; stroke-width: 1.5;" x1="367" x2="562" y1="574.8906" y2="574.8906"/><line style="stroke: #A80036; stroke-width: 1.5;" x1="367" x2="562" y1="582.8906" y2="582.8906"/><!--MD5=[03ae5d1294d62d2021afe4e624bbb692]
class PhotoboxModule--><rect fill="#FEFECE" filter="url(#fyvsqlq2hwil0)" height="53.9375" id="PhotoboxModule" style="stroke: #A80036; stroke-width: 1.5;" width="136" x="396.5" y="650.9531"/><ellipse cx="411.5" cy="669.9219" fill="#0000FF" rx="11" ry="11" style="stroke: #A80036; stroke-width: 1.0;"/><path d="M413.8438,665.5938 L414.0156,665.6719 C414.2344,665.3594 414.4375,665.2656 414.7344,665.2656 C415.0313,665.2656 415.3125,665.4063 415.4688,665.6719 C415.5625,665.8281 415.5781,665.9531 415.5781,666.3906 L415.5781,667.8125 C415.5781,668.2344 415.5469,668.4219 415.4375,668.5781 C415.2656,668.7969 415,668.9375 414.7344,668.9375 C414.5156,668.9375 414.2813,668.8281 414.1406,668.6875 C414,668.5625 413.9688,668.4375 413.9063,668.0313 C413.8125,667.625 413.6406,667.4063 413.1563,667.125 C412.6875,666.875 412.0781,666.7188 411.5,666.7188 C409.7656,666.7188 408.5156,668.0313 408.5156,669.8125 L408.5156,670.9063 C408.5156,672.6094 409.8125,673.7031 411.8594,673.7031 C412.625,673.7031 413.3125,673.5781 413.7344,673.3125 C413.9219,673.2188 413.9219,673.2188 414.375,672.7344 C414.5625,672.5469 414.7656,672.4688 414.9844,672.4688 C415.4531,672.4688 415.8438,672.8594 415.8438,673.3125 C415.8438,673.7031 415.5156,674.1563 414.9375,674.5625 C414.1875,675.1094 413.0313,675.4063 411.8125,675.4063 C408.9219,675.4063 406.8125,673.5156 406.8125,670.9375 L406.8125,669.8125 C406.8125,667.0938 408.8125,665.0156 411.4375,665.0156 C412.3125,665.0156 412.9063,665.1563 413.8438,665.5938 Z "/><text fill="#000000" font-family="sans-serif" font-size="12" font-style="italic" lengthAdjust="spacingAndGlyphs" textLength="85" x="435" y="667.0918">«component»</text><text fill="#000000" font-family="sans-serif" font-size="12" lengthAdjust="spacingAndGlyphs" textLength="104" x="425.5" y="681.0605">PhotoboxModule</text><line style="stroke: #A80036; stroke-width: 1.5;" x1="397.5" x2="531.5" y1="688.8906" y2="688.8906"/><line style="stroke: #A80036; stroke-width: 1.5;" x1="397.5" x2="531.5" y1="696.8906" y2="696.8906"/><!--MD5=[208580c1a53067c4c021b2550694f4d6]
class PhotoGallery--><rect fill="#FEFECE" filter="url(#fyvsqlq2hwil0)" height="53.9375" id="PhotoGallery" style="stroke: #A80036; stroke-width: 1.5;" width="113" x="279" y="764.9531"/><ellipse cx="294" cy="783.9219" fill="#0000FF" rx="11" ry="11" style="stroke: #A80036; stroke-width: 1.0;"/><path d="M296.3438,779.5938 L296.5156,779.6719 C296.7344,779.3594 296.9375,779.2656 297.2344,779.2656 C297.5313,779.2656 297.8125,779.4063 297.9688,779.6719 C298.0625,779.8281 298.0781,779.9531 298.0781,780.3906 L298.0781,781.8125 C298.0781,782.2344 298.0469,782.4219 297.9375,782.5781 C297.7656,782.7969 297.5,782.9375 297.2344,782.9375 C297.0156,782.9375 296.7813,782.8281 296.6406,782.6875 C296.5,782.5625 296.4688,782.4375 296.4063,782.0313 C296.3125,781.625 296.1406,781.4063 295.6563,781.125 C295.1875,780.875 294.5781,780.7188 294,780.7188 C292.2656,780.7188 291.0156,782.0313 291.0156,783.8125 L291.0156,784.9063 C291.0156,786.6094 292.3125,787.7031 294.3594,787.7031 C295.125,787.7031 295.8125,787.5781 296.2344,787.3125 C296.4219,787.2188 296.4219,787.2188 296.875,786.7344 C297.0625,786.5469 297.2656,786.4688 297.4844,786.4688 C297.9531,786.4688 298.3438,786.8594 298.3438,787.3125 C298.3438,787.7031 298.0156,788.1563 297.4375,788.5625 C296.6875,789.1094 295.5313,789.4063 294.3125,789.4063 C291.4219,789.4063 289.3125,787.5156 289.3125,784.9375 L289.3125,783.8125 C289.3125,781.0938 291.3125,779.0156 293.9375,779.0156 C294.8125,779.0156 295.4063,779.1563 296.3438,779.5938 Z "/><text fill="#000000" font-family="sans-serif" font-size="12" font-style="italic" lengthAdjust="spacingAndGlyphs" textLength="85" x="306" y="781.0918">«component»</text><text fill="#000000" font-family="sans-serif" font-size="12" lengthAdjust="spacingAndGlyphs" textLength="79" x="309" y="795.0605">PhotoGallery</text><line style="stroke: #A80036; stroke-width: 1.5;" x1="280" x2="391" y1="802.8906" y2="802.8906"/><line style="stroke: #A80036; stroke-width: 1.5;" x1="280" x2="391" y1="810.8906" y2="810.8906"/><!--MD5=[840f7e76ce46a89e5be51ae6853b408c]
class TakePhoto--><rect fill="#FEFECE" filter="url(#fyvsqlq2hwil0)" height="53.9375" id="TakePhoto" style="stroke: #A80036; stroke-width: 1.5;" width="113" x="427" y="764.9531"/><ellipse cx="442" cy="783.9219" fill="#0000FF" rx="11" ry="11" style="stroke: #A80036; stroke-width: 1.0;"/><path d="M444.3438,779.5938 L444.5156,779.6719 C444.7344,779.3594 444.9375,779.2656 445.2344,779.2656 C445.5313,779.2656 445.8125,779.4063 445.9688,779.6719 C446.0625,779.8281 446.0781,779.9531 446.0781,780.3906 L446.0781,781.8125 C446.0781,782.2344 446.0469,782.4219 445.9375,782.5781 C445.7656,782.7969 445.5,782.9375 445.2344,782.9375 C445.0156,782.9375 444.7813,782.8281 444.6406,782.6875 C444.5,782.5625 444.4688,782.4375 444.4063,782.0313 C444.3125,781.625 444.1406,781.4063 443.6563,781.125 C443.1875,780.875 442.5781,780.7188 442,780.7188 C440.2656,780.7188 439.0156,782.0313 439.0156,783.8125 L439.0156,784.9063 C439.0156,786.6094 440.3125,787.7031 442.3594,787.7031 C443.125,787.7031 443.8125,787.5781 444.2344,787.3125 C444.4219,787.2188 444.4219,787.2188 444.875,786.7344 C445.0625,786.5469 445.2656,786.4688 445.4844,786.4688 C445.9531,786.4688 446.3438,786.8594 446.3438,787.3125 C446.3438,787.7031 446.0156,788.1563 445.4375,788.5625 C444.6875,789.1094 443.5313,789.4063 442.3125,789.4063 C439.4219,789.4063 437.3125,787.5156 437.3125,784.9375 L437.3125,783.8125 C437.3125,781.0938 439.3125,779.0156 441.9375,779.0156 C442.8125,779.0156 443.4063,779.1563 444.3438,779.5938 Z "/><text fill="#000000" font-family="sans-serif" font-size="12" font-style="italic" lengthAdjust="spacingAndGlyphs" textLength="85" x="454" y="781.0918">«component»</text><text fill="#000000" font-family="sans-serif" font-size="12" lengthAdjust="spacingAndGlyphs" textLength="67" x="463" y="795.0605">TakePhoto</text><line style="stroke: #A80036; stroke-width: 1.5;" x1="428" x2="539" y1="802.8906" y2="802.8906"/><line style="stroke: #A80036; stroke-width: 1.5;" x1="428" x2="539" y1="810.8906" y2="810.8906"/><!--MD5=[d6876648e5f12850a7adcd4b108c09c1]
class DonationModuleContainer--><rect fill="#FEFECE" filter="url(#fyvsqlq2hwil0)" height="53.9375" id="DonationModuleContainer" style="stroke: #A80036; stroke-width: 1.5;" width="195" x="598" y="536.9531"/><ellipse cx="613" cy="555.9219" fill="#FF0000" rx="11" ry="11" style="stroke: #A80036; stroke-width: 1.0;"/><path d="M615.3438,551.5938 L615.5156,551.6719 C615.7344,551.3594 615.9375,551.2656 616.2344,551.2656 C616.5313,551.2656 616.8125,551.4063 616.9688,551.6719 C617.0625,551.8281 617.0781,551.9531 617.0781,552.3906 L617.0781,553.8125 C617.0781,554.2344 617.0469,554.4219 616.9375,554.5781 C616.7656,554.7969 616.5,554.9375 616.2344,554.9375 C616.0156,554.9375 615.7813,554.8281 615.6406,554.6875 C615.5,554.5625 615.4688,554.4375 615.4063,554.0313 C615.3125,553.625 615.1406,553.4063 614.6563,553.125 C614.1875,552.875 613.5781,552.7188 613,552.7188 C611.2656,552.7188 610.0156,554.0313 610.0156,555.8125 L610.0156,556.9063 C610.0156,558.6094 611.3125,559.7031 613.3594,559.7031 C614.125,559.7031 614.8125,559.5781 615.2344,559.3125 C615.4219,559.2188 615.4219,559.2188 615.875,558.7344 C616.0625,558.5469 616.2656,558.4688 616.4844,558.4688 C616.9531,558.4688 617.3438,558.8594 617.3438,559.3125 C617.3438,559.7031 617.0156,560.1563 616.4375,560.5625 C615.6875,561.1094 614.5313,561.4063 613.3125,561.4063 C610.4219,561.4063 608.3125,559.5156 608.3125,556.9375 L608.3125,555.8125 C608.3125,553.0938 610.3125,551.0156 612.9375,551.0156 C613.8125,551.0156 614.4063,551.1563 615.3438,551.5938 Z "/><text fill="#000000" font-family="sans-serif" font-size="12" font-style="italic" lengthAdjust="spacingAndGlyphs" textLength="74" x="671.5" y="553.0918">«container»</text><text fill="#000000" font-family="sans-serif" font-size="12" lengthAdjust="spacingAndGlyphs" textLength="163" x="627" y="567.0605">DonationModuleContainer</text><line style="stroke: #A80036; stroke-width: 1.5;" x1="599" x2="792" y1="574.8906" y2="574.8906"/><line style="stroke: #A80036; stroke-width: 1.5;" x1="599" x2="792" y1="582.8906" y2="582.8906"/><!--MD5=[3b767fe5b2e4e2ff6510dc1ffc2c74f8]
class DonationModule--><rect fill="#FEFECE" filter="url(#fyvsqlq2hwil0)" height="53.9375" id="DonationModule" style="stroke: #A80036; stroke-width: 1.5;" width="134" x="628.5" y="650.9531"/><ellipse cx="643.5" cy="669.9219" fill="#0000FF" rx="11" ry="11" style="stroke: #A80036; stroke-width: 1.0;"/><path d="M645.8438,665.5938 L646.0156,665.6719 C646.2344,665.3594 646.4375,665.2656 646.7344,665.2656 C647.0313,665.2656 647.3125,665.4063 647.4688,665.6719 C647.5625,665.8281 647.5781,665.9531 647.5781,666.3906 L647.5781,667.8125 C647.5781,668.2344 647.5469,668.4219 647.4375,668.5781 C647.2656,668.7969 647,668.9375 646.7344,668.9375 C646.5156,668.9375 646.2813,668.8281 646.1406,668.6875 C646,668.5625 645.9688,668.4375 645.9063,668.0313 C645.8125,667.625 645.6406,667.4063 645.1563,667.125 C644.6875,666.875 644.0781,666.7188 643.5,666.7188 C641.7656,666.7188 640.5156,668.0313 640.5156,669.8125 L640.5156,670.9063 C640.5156,672.6094 641.8125,673.7031 643.8594,673.7031 C644.625,673.7031 645.3125,673.5781 645.7344,673.3125 C645.9219,673.2188 645.9219,673.2188 646.375,672.7344 C646.5625,672.5469 646.7656,672.4688 646.9844,672.4688 C647.4531,672.4688 647.8438,672.8594 647.8438,673.3125 C647.8438,673.7031 647.5156,674.1563 646.9375,674.5625 C646.1875,675.1094 645.0313,675.4063 643.8125,675.4063 C640.9219,675.4063 638.8125,673.5156 638.8125,670.9375 L638.8125,669.8125 C638.8125,667.0938 640.8125,665.0156 643.4375,665.0156 C644.3125,665.0156 644.9063,665.1563 645.8438,665.5938 Z "/><text fill="#000000" font-family="sans-serif" font-size="12" font-style="italic" lengthAdjust="spacingAndGlyphs" textLength="85" x="666" y="667.0918">«component»</text><text fill="#000000" font-family="sans-serif" font-size="12" lengthAdjust="spacingAndGlyphs" textLength="102" x="657.5" y="681.0605">DonationModule</text><line style="stroke: #A80036; stroke-width: 1.5;" x1="629.5" x2="761.5" y1="688.8906" y2="688.8906"/><line style="stroke: #A80036; stroke-width: 1.5;" x1="629.5" x2="761.5" y1="696.8906" y2="696.8906"/><!--MD5=[add4288de0209126c13cebfa547490fa]
class SelectDonation--><rect fill="#FEFECE" filter="url(#fyvsqlq2hwil0)" height="53.9375" id="SelectDonation" style="stroke: #A80036; stroke-width: 1.5;" width="128" x="612.5" y="764.9531"/><ellipse cx="627.5" cy="783.9219" fill="#0000FF" rx="11" ry="11" style="stroke: #A80036; stroke-width: 1.0;"/><path d="M629.8438,779.5938 L630.0156,779.6719 C630.2344,779.3594 630.4375,779.2656 630.7344,779.2656 C631.0313,779.2656 631.3125,779.4063 631.4688,779.6719 C631.5625,779.8281 631.5781,779.9531 631.5781,780.3906 L631.5781,781.8125 C631.5781,782.2344 631.5469,782.4219 631.4375,782.5781 C631.2656,782.7969 631,782.9375 630.7344,782.9375 C630.5156,782.9375 630.2813,782.8281 630.1406,782.6875 C630,782.5625 629.9688,782.4375 629.9063,782.0313 C629.8125,781.625 629.6406,781.4063 629.1563,781.125 C628.6875,780.875 628.0781,780.7188 627.5,780.7188 C625.7656,780.7188 624.5156,782.0313 624.5156,783.8125 L624.5156,784.9063 C624.5156,786.6094 625.8125,787.7031 627.8594,787.7031 C628.625,787.7031 629.3125,787.5781 629.7344,787.3125 C629.9219,787.2188 629.9219,787.2188 630.375,786.7344 C630.5625,786.5469 630.7656,786.4688 630.9844,786.4688 C631.4531,786.4688 631.8438,786.8594 631.8438,787.3125 C631.8438,787.7031 631.5156,788.1563 630.9375,788.5625 C630.1875,789.1094 629.0313,789.4063 627.8125,789.4063 C624.9219,789.4063 622.8125,787.5156 622.8125,784.9375 L622.8125,783.8125 C622.8125,781.0938 624.8125,779.0156 627.4375,779.0156 C628.3125,779.0156 628.9063,779.1563 629.8438,779.5938 Z "/><text fill="#000000" font-family="sans-serif" font-size="12" font-style="italic" lengthAdjust="spacingAndGlyphs" textLength="85" x="647" y="781.0918">«component»</text><text fill="#000000" font-family="sans-serif" font-size="12" lengthAdjust="spacingAndGlyphs" textLength="96" x="641.5" y="795.0605">SelectDonation</text><line style="stroke: #A80036; stroke-width: 1.5;" x1="613.5" x2="739.5" y1="802.8906" y2="802.8906"/><line style="stroke: #A80036; stroke-width: 1.5;" x1="613.5" x2="739.5" y1="810.8906" y2="810.8906"/><!--MD5=[db71b1e1875a493ca806a806eb5188d9]
class Donate--><rect fill="#FEFECE" filter="url(#fyvsqlq2hwil0)" height="53.9375" id="Donate" style="stroke: #A80036; stroke-width: 1.5;" width="113" x="776" y="764.9531"/><ellipse cx="791" cy="783.9219" fill="#0000FF" rx="11" ry="11" style="stroke: #A80036; stroke-width: 1.0;"/><path d="M793.3438,779.5938 L793.5156,779.6719 C793.7344,779.3594 793.9375,779.2656 794.2344,779.2656 C794.5313,779.2656 794.8125,779.4063 794.9688,779.6719 C795.0625,779.8281 795.0781,779.9531 795.0781,780.3906 L795.0781,781.8125 C795.0781,782.2344 795.0469,782.4219 794.9375,782.5781 C794.7656,782.7969 794.5,782.9375 794.2344,782.9375 C794.0156,782.9375 793.7813,782.8281 793.6406,782.6875 C793.5,782.5625 793.4688,782.4375 793.4063,782.0313 C793.3125,781.625 793.1406,781.4063 792.6563,781.125 C792.1875,780.875 791.5781,780.7188 791,780.7188 C789.2656,780.7188 788.0156,782.0313 788.0156,783.8125 L788.0156,784.9063 C788.0156,786.6094 789.3125,787.7031 791.3594,787.7031 C792.125,787.7031 792.8125,787.5781 793.2344,787.3125 C793.4219,787.2188 793.4219,787.2188 793.875,786.7344 C794.0625,786.5469 794.2656,786.4688 794.4844,786.4688 C794.9531,786.4688 795.3438,786.8594 795.3438,787.3125 C795.3438,787.7031 795.0156,788.1563 794.4375,788.5625 C793.6875,789.1094 792.5313,789.4063 791.3125,789.4063 C788.4219,789.4063 786.3125,787.5156 786.3125,784.9375 L786.3125,783.8125 C786.3125,781.0938 788.3125,779.0156 790.9375,779.0156 C791.8125,779.0156 792.4063,779.1563 793.3438,779.5938 Z "/><text fill="#000000" font-family="sans-serif" font-size="12" font-style="italic" lengthAdjust="spacingAndGlyphs" textLength="85" x="803" y="781.0918">«component»</text><text fill="#000000" font-family="sans-serif" font-size="12" lengthAdjust="spacingAndGlyphs" textLength="46" x="822.5" y="795.0605">Donate</text><line style="stroke: #A80036; stroke-width: 1.5;" x1="777" x2="888" y1="802.8906" y2="802.8906"/><line style="stroke: #A80036; stroke-width: 1.5;" x1="777" x2="888" y1="810.8906" y2="810.8906"/><!--MD5=[fb181e3b65790a87f42c86421dd44c26]
class ContactModuleContainer--><rect fill="#FEFECE" filter="url(#fyvsqlq2hwil0)" height="53.9375" id="ContactModuleContainer" style="stroke: #A80036; stroke-width: 1.5;" width="187" x="828" y="536.9531"/><ellipse cx="843" cy="555.9219" fill="#FF0000" rx="11" ry="11" style="stroke: #A80036; stroke-width: 1.0;"/><path d="M845.3438,551.5938 L845.5156,551.6719 C845.7344,551.3594 845.9375,551.2656 846.2344,551.2656 C846.5313,551.2656 846.8125,551.4063 846.9688,551.6719 C847.0625,551.8281 847.0781,551.9531 847.0781,552.3906 L847.0781,553.8125 C847.0781,554.2344 847.0469,554.4219 846.9375,554.5781 C846.7656,554.7969 846.5,554.9375 846.2344,554.9375 C846.0156,554.9375 845.7813,554.8281 845.6406,554.6875 C845.5,554.5625 845.4688,554.4375 845.4063,554.0313 C845.3125,553.625 845.1406,553.4063 844.6563,553.125 C844.1875,552.875 843.5781,552.7188 843,552.7188 C841.2656,552.7188 840.0156,554.0313 840.0156,555.8125 L840.0156,556.9063 C840.0156,558.6094 841.3125,559.7031 843.3594,559.7031 C844.125,559.7031 844.8125,559.5781 845.2344,559.3125 C845.4219,559.2188 845.4219,559.2188 845.875,558.7344 C846.0625,558.5469 846.2656,558.4688 846.4844,558.4688 C846.9531,558.4688 847.3438,558.8594 847.3438,559.3125 C847.3438,559.7031 847.0156,560.1563 846.4375,560.5625 C845.6875,561.1094 844.5313,561.4063 843.3125,561.4063 C840.4219,561.4063 838.3125,559.5156 838.3125,556.9375 L838.3125,555.8125 C838.3125,553.0938 840.3125,551.0156 842.9375,551.0156 C843.8125,551.0156 844.4063,551.1563 845.3438,551.5938 Z "/><text fill="#000000" font-family="sans-serif" font-size="12" font-style="italic" lengthAdjust="spacingAndGlyphs" textLength="74" x="897.5" y="553.0918">«container»</text><text fill="#000000" font-family="sans-serif" font-size="12" lengthAdjust="spacingAndGlyphs" textLength="155" x="857" y="567.0605">ContactModuleContainer</text><line style="stroke: #A80036; stroke-width: 1.5;" x1="829" x2="1014" y1="574.8906" y2="574.8906"/><line style="stroke: #A80036; stroke-width: 1.5;" x1="829" x2="1014" y1="582.8906" y2="582.8906"/><!--MD5=[3ad65d8444e39c54efb109b8af0bee18]
class ContactModule--><rect fill="#FEFECE" filter="url(#fyvsqlq2hwil0)" height="53.9375" id="ContactModule" style="stroke: #A80036; stroke-width: 1.5;" width="126" x="858.5" y="650.9531"/><ellipse cx="873.5" cy="669.9219" fill="#0000FF" rx="11" ry="11" style="stroke: #A80036; stroke-width: 1.0;"/><path d="M875.8438,665.5938 L876.0156,665.6719 C876.2344,665.3594 876.4375,665.2656 876.7344,665.2656 C877.0313,665.2656 877.3125,665.4063 877.4688,665.6719 C877.5625,665.8281 877.5781,665.9531 877.5781,666.3906 L877.5781,667.8125 C877.5781,668.2344 877.5469,668.4219 877.4375,668.5781 C877.2656,668.7969 877,668.9375 876.7344,668.9375 C876.5156,668.9375 876.2813,668.8281 876.1406,668.6875 C876,668.5625 875.9688,668.4375 875.9063,668.0313 C875.8125,667.625 875.6406,667.4063 875.1563,667.125 C874.6875,666.875 874.0781,666.7188 873.5,666.7188 C871.7656,666.7188 870.5156,668.0313 870.5156,669.8125 L870.5156,670.9063 C870.5156,672.6094 871.8125,673.7031 873.8594,673.7031 C874.625,673.7031 875.3125,673.5781 875.7344,673.3125 C875.9219,673.2188 875.9219,673.2188 876.375,672.7344 C876.5625,672.5469 876.7656,672.4688 876.9844,672.4688 C877.4531,672.4688 877.8438,672.8594 877.8438,673.3125 C877.8438,673.7031 877.5156,674.1563 876.9375,674.5625 C876.1875,675.1094 875.0313,675.4063 873.8125,675.4063 C870.9219,675.4063 868.8125,673.5156 868.8125,670.9375 L868.8125,669.8125 C868.8125,667.0938 870.8125,665.0156 873.4375,665.0156 C874.3125,665.0156 874.9063,665.1563 875.8438,665.5938 Z "/><text fill="#000000" font-family="sans-serif" font-size="12" font-style="italic" lengthAdjust="spacingAndGlyphs" textLength="85" x="892" y="667.0918">«component»</text><text fill="#000000" font-family="sans-serif" font-size="12" lengthAdjust="spacingAndGlyphs" textLength="94" x="887.5" y="681.0605">ContactModule</text><line style="stroke: #A80036; stroke-width: 1.5;" x1="859.5" x2="983.5" y1="688.8906" y2="688.8906"/><line style="stroke: #A80036; stroke-width: 1.5;" x1="859.5" x2="983.5" y1="696.8906" y2="696.8906"/><!--MD5=[1ba37ec866422704905562cc580d96c5]
class NotFound--><rect fill="#FEFECE" filter="url(#fyvsqlq2hwil0)" height="53.9375" id="NotFound" style="stroke: #A80036; stroke-width: 1.5;" width="113" x="1050" y="536.9531"/><ellipse cx="1065" cy="555.9219" fill="#0000FF" rx="11" ry="11" style="stroke: #A80036; stroke-width: 1.0;"/><path d="M1067.3438,551.5938 L1067.5156,551.6719 C1067.7344,551.3594 1067.9375,551.2656 1068.2344,551.2656 C1068.5313,551.2656 1068.8125,551.4063 1068.9688,551.6719 C1069.0625,551.8281 1069.0781,551.9531 1069.0781,552.3906 L1069.0781,553.8125 C1069.0781,554.2344 1069.0469,554.4219 1068.9375,554.5781 C1068.7656,554.7969 1068.5,554.9375 1068.2344,554.9375 C1068.0156,554.9375 1067.7813,554.8281 1067.6406,554.6875 C1067.5,554.5625 1067.4688,554.4375 1067.4063,554.0313 C1067.3125,553.625 1067.1406,553.4063 1066.6563,553.125 C1066.1875,552.875 1065.5781,552.7188 1065,552.7188 C1063.2656,552.7188 1062.0156,554.0313 1062.0156,555.8125 L1062.0156,556.9063 C1062.0156,558.6094 1063.3125,559.7031 1065.3594,559.7031 C1066.125,559.7031 1066.8125,559.5781 1067.2344,559.3125 C1067.4219,559.2188 1067.4219,559.2188 1067.875,558.7344 C1068.0625,558.5469 1068.2656,558.4688 1068.4844,558.4688 C1068.9531,558.4688 1069.3438,558.8594 1069.3438,559.3125 C1069.3438,559.7031 1069.0156,560.1563 1068.4375,560.5625 C1067.6875,561.1094 1066.5313,561.4063 1065.3125,561.4063 C1062.4219,561.4063 1060.3125,559.5156 1060.3125,556.9375 L1060.3125,555.8125 C1060.3125,553.0938 1062.3125,551.0156 1064.9375,551.0156 C1065.8125,551.0156 1066.4063,551.1563 1067.3438,551.5938 Z "/><text fill="#000000" font-family="sans-serif" font-size="12" font-style="italic" lengthAdjust="spacingAndGlyphs" textLength="85" x="1077" y="553.0918">«component»</text><text fill="#000000" font-family="sans-serif" font-size="12" lengthAdjust="spacingAndGlyphs" textLength="61" x="1089" y="567.0605">NotFound</text><line style="stroke: #A80036; stroke-width: 1.5;" x1="1051" x2="1162" y1="574.8906" y2="574.8906"/><line style="stroke: #A80036; stroke-width: 1.5;" x1="1051" x2="1162" y1="582.8906" y2="582.8906"/><!--MD5=[b8515dad8f6fa5cd9877f0a60e9a9b21]
link Redux to App--><path d="M469.5,101.2491 C469.5,116.8361 469.5,134.8661 469.5,150.4731 " fill="none" id="Redux-App" style="stroke: #A80036; stroke-width: 1.0; stroke-dasharray: 7.0,7.0;"/><polygon fill="#A80036" points="469.5,155.6661,473.5,146.6661,469.5,150.6661,465.5,146.6661,469.5,155.6661" style="stroke: #A80036; stroke-width: 1.0;"/><polygon fill="#A80036" points="469.5,95.9691,465.5,104.9691,469.5,100.9691,473.5,104.9691,469.5,95.9691" style="stroke: #A80036; stroke-width: 1.0;"/><!--MD5=[aa1091f531fbe5a05d43f0853b1d1dd8]
link App to Header--><path d="M427.108,226.2571 C407.307,242.9811 383.786,262.8471 363.974,279.5801 " fill="none" id="App-Header" style="stroke: #A80036; stroke-width: 1.0; stroke-dasharray: 7.0,7.0;"/><polygon fill="#A80036" points="360.063,282.8831,369.52,280.1327,363.8832,279.6573,364.3586,274.0204,360.063,282.8831" style="stroke: #A80036; stroke-width: 1.0;"/><polygon fill="#A80036" points="431.001,222.9691,421.544,225.7195,427.1808,226.195,426.7054,231.8318,431.001,222.9691" style="stroke: #A80036; stroke-width: 1.0;"/><!--MD5=[e8d4acaf5f7f4edd7ded5837207c5201]
link App to ErrorAlert--><path d="M469.5,228.2491 C469.5,243.8361 469.5,261.8661 469.5,277.4731 " fill="none" id="App-ErrorAlert" style="stroke: #A80036; stroke-width: 1.0; stroke-dasharray: 7.0,7.0;"/><polygon fill="#A80036" points="469.5,282.6661,473.5,273.6661,469.5,277.6661,465.5,273.6661,469.5,282.6661" style="stroke: #A80036; stroke-width: 1.0;"/><polygon fill="#A80036" points="469.5,222.9691,465.5,231.9691,469.5,227.9691,473.5,231.9691,469.5,222.9691" style="stroke: #A80036; stroke-width: 1.0;"/><!--MD5=[53d6e21f6fdca70820fe4c8078d4c90e]
link App to Router--><path d="M505.149,227.0401 C518.984,243.0641 533.802,262.7931 543.5,282.9531 C562.306,322.0481 571.488,371.3071 575.835,404.6631 " fill="none" id="App-Router" style="stroke: #A80036; stroke-width: 1.0; stroke-dasharray: 7.0,7.0;"/><polygon fill="#A80036" points="576.492,409.8761,579.3344,400.4464,575.8664,404.9154,571.3973,401.4474,576.492,409.8761" style="stroke: #A80036; stroke-width: 1.0;"/><polygon fill="#A80036" points="501.656,223.0471,504.5727,232.4542,504.9487,226.8098,510.5931,227.1858,501.656,223.0471" style="stroke: #A80036; stroke-width: 1.0;"/><!--MD5=[d64406ef0fde007d60a19dfa8f616a91]
link Router to Menu--><path d="M528.484,452.8451 C445.512,466.9971 276.513,497.9221 136.5,536.9531 C130.86,538.5251 125.026,540.3031 119.224,542.1731 " fill="none" id="Router-Menu" style="stroke: #A80036; stroke-width: 1.0;"/><!--MD5=[9ca16c99f3b1117d4626f5a546378c88]
link Router to ArticleModuleContainer--><path d="M528.317,462.4511 C471.973,482.2631 380.886,514.2921 316.71,536.8581 " fill="none" id="Router-ArticleModuleContainer" style="stroke: #A80036; stroke-width: 1.0;"/><!--MD5=[5e3acc3b30a7d1b24f55368baacaf4d0]
link Router to PhotoboxModuleContainer--><path d="M547.771,477.1471 C529.555,495.9181 506.988,519.1721 489.943,536.7361 " fill="none" id="Router-PhotoboxModuleContainer" style="stroke: #A80036; stroke-width: 1.0;"/><!--MD5=[ea10203d51af6f0a4d6103e2c9ad675c]
link Router to DonationModuleContainer--><path d="M611.505,477.1471 C629.879,495.9181 652.643,519.1721 669.836,536.7361 " fill="none" id="Router-DonationModuleContainer" style="stroke: #A80036; stroke-width: 1.0;"/><!--MD5=[8ec153f9a9030e1617aba6c5b0f2a846]
link Router to ContactModuleContainer--><path d="M630.701,462.1941 C687.814,481.9831 780.759,514.1871 846.168,536.8511 " fill="none" id="Router-ContactModuleContainer" style="stroke: #A80036; stroke-width: 1.0;"/><!--MD5=[1956eb704b8b380e91b6b8207c79cc39]
link Router to NotFound--><path d="M630.649,452.5541 C715.134,466.4551 888.789,497.2341 1032.5,536.9531 C1038.14,538.5131 1043.98,540.2821 1049.78,542.1471 " fill="none" id="Router-NotFound" style="stroke: #A80036; stroke-width: 1.0;"/><!--MD5=[4f476ef04060b34b5b63c1cfb9174a0d]
link Menu to MenuEntry--><path d="M62.5,591.2121 C62.5,609.1861 62.5,632.9191 62.5,650.8581 " fill="none" id="Menu-MenuEntry" style="stroke: #A80036; stroke-width: 1.0;"/><!--MD5=[89a487b80b10bd39003315c8ccb72f6b]
link ArticleModuleContainer to ArticleModule--><path d="M242.5,591.2121 C242.5,609.1861 242.5,632.9191 242.5,650.8581 " fill="none" id="ArticleModuleContainer-ArticleModule" style="stroke: #A80036; stroke-width: 1.0;"/><!--MD5=[fa83cb184e880e54784db337d104da11]
link ContactModuleContainer to ContactModule--><path d="M921.5,591.2121 C921.5,609.1861 921.5,632.9191 921.5,650.8581 " fill="none" id="ContactModuleContainer-ContactModule" style="stroke: #A80036; stroke-width: 1.0;"/><!--MD5=[5b8bcab59b6841f6ba188b6faf964c6b]
link PhotoboxModuleContainer to PhotoboxModule--><path d="M464.5,591.2121 C464.5,609.1861 464.5,632.9191 464.5,650.8581 " fill="none" id="PhotoboxModuleContainer-PhotoboxModule" style="stroke: #A80036; stroke-width: 1.0;"/><!--MD5=[3e07b4b0f63105b6654953495c921e95]
link DonationModuleContainer to DonationModule--><path d="M695.5,591.2121 C695.5,609.1861 695.5,632.9191 695.5,650.8581 " fill="none" id="DonationModuleContainer-DonationModule" style="stroke: #A80036; stroke-width: 1.0;"/><!--MD5=[b913c63e986d25658c2b7bc09c116cb0]
link PhotoboxModule to PhotoGallery--><path d="M434.255,705.2121 C413.553,723.1865 386.217,746.9195 365.555,764.8586 " fill="none" id="PhotoboxModule-PhotoGallery" style="stroke: #A80036; stroke-width: 1.0;"/><!--MD5=[2df8193ee5cb6a1f077f1a844b320b6b]
link PhotoboxModule to TakePhoto--><path d="M468.955,705.2121 C472.004,723.1865 476.03,746.9195 479.073,764.8586 " fill="none" id="PhotoboxModule-TakePhoto" style="stroke: #A80036; stroke-width: 1.0;"/><!--MD5=[d37e949450b5b4dcb380b3ced54b09aa]
link DonationModule to SelectDonation--><path d="M691.045,705.2121 C687.996,723.1865 683.97,746.9195 680.927,764.8586 " fill="none" id="DonationModule-SelectDonation" style="stroke: #A80036; stroke-width: 1.0;"/><!--MD5=[1275ffec6fff34d318fefe6b282285b4]
link DonationModule to Donate--><path d="M727.62,705.2121 C749.607,723.1865 778.638,746.9195 800.581,764.8586 " fill="none" id="DonationModule-Donate" style="stroke: #A80036; stroke-width: 1.0;"/><!--MD5=[2f7d4199432e1da584eb2e9b4d2b2e76]
@startuml
title Sharing Station App

class Redux << (P,yellow) Provider>> {
  ~store
}

class App << (C, blue) component>> {
  ~store
}

class Header << (C, blue) component>> {
  ~store
}

class ErrorAlert << (C, blue) component>> {
  ~store
}

class Loading << (C, blue) component>> {

}

class Router << (C, red) container>> {
  ~store
}

class AnimatedSwitch << (C, red) container>> {

}

Class Menu << (C, blue) component>> {

}

Class MenuEntry << (C, blue) component>> {

}

class ArticleModuleContainer << (C, red) container>> {

}

class ArticleModule << (C, blue) component>> {

}

class PhotoboxModuleContainer << (C, red) container>> {

}

class PhotoboxModule << (C, blue) component>> {
  
}

class PhotoGallery << (C, blue) component>> {

}

class TakePhoto << (C, blue) component>> {

}

class DonationModuleContainer << (C, red) container>> {

}

class DonationModule << (C, blue) component>> {
  
}

class SelectDonation << (C, blue) component>> {

}

class Donate << (C, blue) component>> {

}

class ContactModuleContainer << (C, red) container>> {

}

class ContactModule << (C, blue) component>> {
  
}

class NotFound << (C, blue) component>> {
  
}

Redux <..> App

App <..> Header
App <..> ErrorAlert
App <...> Router

Router - - Menu
Router - - ArticleModuleContainer
Router - - PhotoboxModuleContainer
Router - - DonationModuleContainer
Router - - ContactModuleContainer
Router - - NotFound

Menu - - MenuEntry

ArticleModuleContainer - - ArticleModule
ContactModuleContainer - - ContactModule
PhotoboxModuleContainer - - PhotoboxModule
DonationModuleContainer - - DonationModule

PhotoboxModule - - PhotoGallery
PhotoboxModule - - TakePhoto

DonationModule - - SelectDonation
DonationModule - - Donate
@enduml

PlantUML version 1.2020.00(Sat Jan 11 12:30:53 UTC 2020)
(GPL source distribution)
Java Runtime: Java(TM) SE Runtime Environment
JVM: Java HotSpot(TM) 64-Bit Server VM
Java Version: 1.7.0_25-b15
Operating System: Linux
Default Encoding: UTF-8
Language: en
Country: US
--></g></svg>